HIERARCHY
ROOT mixamorig:Hips
{
	OFFSET -0.000008 104.274872 1.554316
	CHANNELS 6 Xposition Yposition Zposition Xrotation Yrotation Zrotation
	JOINT mixamorig:Spine
	{
		OFFSET -0.000005 10.181595 0.131519
		CHANNELS 6 Xposition Yposition Zposition Xrotation Yrotation Zrotation
		JOINT mixamorig:Spine1
		{
			OFFSET -0.000000 9.893959 -1.470707
			CHANNELS 6 Xposition Yposition Zposition Xrotation Yrotation Zrotation
			JOINT mixamorig:Spine2
			{
				OFFSET -0.000000 9.220757 -1.370641
				CHANNELS 6 Xposition Yposition Zposition Xrotation Yrotation Zrotation
				JOINT mixamorig:Neck
				{
					OFFSET 0.000001 16.740417 -2.049036
					CHANNELS 6 Xposition Yposition Zposition Xrotation Yrotation Zrotation
					JOINT mixamorig:Head
					{
						OFFSET 0.000000 9.617874 1.685006
						CHANNELS 6 Xposition Yposition Zposition Xrotation Yrotation Zrotation
						JOINT mixamorig:HeadTop_End
						{
							OFFSET 0.000002 22.037354 7.501101
							CHANNELS 6 Xposition Yposition Zposition Xrotation Yrotation Zrotation
							End Site
							{
								OFFSET 0.000168 2310.654297 -282.823242
							}
						}
					}
				}
				JOINT mixamorig:RightShoulder
				{
					OFFSET -4.569970 11.014908 -2.160885
					CHANNELS 6 Xposition Yposition Zposition Xrotation Yrotation Zrotation
					JOINT mixamorig:RightArm
					{
						OFFSET -10.592851 -0.524811 -2.232101
						CHANNELS 6 Xposition Yposition Zposition Xrotation Yrotation Zrotation
						JOINT mixamorig:RightForeArm
						{
							OFFSET -27.841511 0.000031 -0.000004
							CHANNELS 6 Xposition Yposition Zposition Xrotation Yrotation Zrotation
							JOINT mixamorig:RightHand
							{
								OFFSET -28.328831 -0.000015 0.000015
								CHANNELS 6 Xposition Yposition Zposition Xrotation Yrotation Zrotation
								JOINT mixamorig:RightHandThumb1
								{
									OFFSET -2.464806 -1.573990 2.681852
									CHANNELS 6 Xposition Yposition Zposition Xrotation Yrotation Zrotation
									JOINT mixamorig:RightHandThumb2
									{
										OFFSET -3.215179 -1.872803 1.924282
										CHANNELS 6 Xposition Yposition Zposition Xrotation Yrotation Zrotation
										JOINT mixamorig:RightHandThumb3
										{
											OFFSET -2.654831 -1.527969 1.512609
											CHANNELS 6 Xposition Yposition Zposition Xrotation Yrotation Zrotation
											JOINT mixamorig:RightHandThumb4
											{
												OFFSET -2.018814 -1.152008 1.108052
												CHANNELS 6 Xposition Yposition Zposition Xrotation Yrotation Zrotation
												End Site
												{
													OFFSET -188.809540 -114.533607 132.431396
												}
											}
										}
									}
								}
								JOINT mixamorig:RightHandIndex1
								{
									OFFSET -9.108284 -0.517868 2.259835
									CHANNELS 6 Xposition Yposition Zposition Xrotation Yrotation Zrotation
									JOINT mixamorig:RightHandIndex2
									{
										OFFSET -3.699989 0.000000 0.001215
										CHANNELS 6 Xposition Yposition Zposition Xrotation Yrotation Zrotation
										JOINT mixamorig:RightHandIndex3
										{
											OFFSET -2.850006 0.000031 -0.000522
											CHANNELS 6 Xposition Yposition Zposition Xrotation Yrotation Zrotation
											JOINT mixamorig:RightHandIndex4
											{
												OFFSET -2.772186 -0.000015 -0.000020
												CHANNELS 6 Xposition Yposition Zposition Xrotation Yrotation Zrotation
												End Site
												{
													OFFSET -277.218445 0.000000 -0.050231
												}
											}
										}
									}
								}
								JOINT mixamorig:RightHandMiddle1
								{
									OFFSET -9.532516 -0.000031 -0.000023
									CHANNELS 6 Xposition Yposition Zposition Xrotation Yrotation Zrotation
									JOINT mixamorig:RightHandMiddle2
									{
										OFFSET -3.700005 -0.000015 0.003713
										CHANNELS 6 Xposition Yposition Zposition Xrotation Yrotation Zrotation
										JOINT mixamorig:RightHandMiddle3
										{
											OFFSET -2.949974 0.000015 -0.002054
											CHANNELS 6 Xposition Yposition Zposition Xrotation Yrotation Zrotation
											JOINT mixamorig:RightHandMiddle4
											{
												OFFSET -2.946640 0.000000 -0.000156
												CHANNELS 6 Xposition Yposition Zposition Xrotation Yrotation Zrotation
												End Site
												{
													OFFSET -294.664337 0.000000 -0.113670
												}
											}
										}
									}
								}
								JOINT mixamorig:RightHandRing1
								{
									OFFSET -9.103600 -0.043076 -1.865134
									CHANNELS 6 Xposition Yposition Zposition Xrotation Yrotation Zrotation
									JOINT mixamorig:RightHandRing2
									{
										OFFSET -3.379288 0.000000 -0.001055
										CHANNELS 6 Xposition Yposition Zposition Xrotation Yrotation Zrotation
										JOINT mixamorig:RightHandRing3
										{
											OFFSET -2.889687 -0.000015 0.000379
											CHANNELS 6 Xposition Yposition Zposition Xrotation Yrotation Zrotation
											JOINT mixamorig:RightHandRing4
											{
												OFFSET -2.638809 -0.000015 0.000941
												CHANNELS 6 Xposition Yposition Zposition Xrotation Yrotation Zrotation
												End Site
												{
													OFFSET -263.880371 0.000000 0.516020
												}
											}
										}
									}
								}
								JOINT mixamorig:RightHandPinky1
								{
									OFFSET -8.076683 -0.486710 -3.806280
									CHANNELS 6 Xposition Yposition Zposition Xrotation Yrotation Zrotation
									JOINT mixamorig:RightHandPinky2
									{
										OFFSET -3.600014 -0.000015 -0.003747
										CHANNELS 6 Xposition Yposition Zposition Xrotation Yrotation Zrotation
										JOINT mixamorig:RightHandPinky3
										{
											OFFSET -2.099983 0.000000 -0.005739
											CHANNELS 6 Xposition Yposition Zposition Xrotation Yrotation Zrotation
											JOINT mixamorig:RightHandPinky4
											{
												OFFSET -2.115768 -0.000031 -0.003680
												CHANNELS 6 Xposition Yposition Zposition Xrotation Yrotation Zrotation
												End Site
												{
													OFFSET -211.577087 0.000000 -0.350686
												}
											}
										}
									}
								}
							}
						}
					}
				}
				JOINT mixamorig:LeftShoulder
				{
					OFFSET 4.570447 11.014725 -2.160855
					CHANNELS 6 Xposition Yposition Zposition Xrotation Yrotation Zrotation
					JOINT mixamorig:LeftArm
					{
						OFFSET 10.592371 -0.524597 -2.232119
						CHANNELS 6 Xposition Yposition Zposition Xrotation Yrotation Zrotation
						JOINT mixamorig:LeftForeArm
						{
							OFFSET 27.841532 -0.000031 0.000026
							CHANNELS 6 Xposition Yposition Zposition Xrotation Yrotation Zrotation
							JOINT mixamorig:LeftHand
							{
								OFFSET 28.328846 -0.000061 0.000022
								CHANNELS 6 Xposition Yposition Zposition Xrotation Yrotation Zrotation
								JOINT mixamorig:LeftHandThumb1
								{
									OFFSET 2.466141 -1.576172 2.681732
									CHANNELS 6 Xposition Yposition Zposition Xrotation Yrotation Zrotation
									JOINT mixamorig:LeftHandThumb2
									{
										OFFSET 3.217812 -1.872070 1.916482
										CHANNELS 6 Xposition Yposition Zposition Xrotation Yrotation Zrotation
										JOINT mixamorig:LeftHandThumb3
										{
											OFFSET 2.656029 -1.528778 1.514513
											CHANNELS 6 Xposition Yposition Zposition Xrotation Yrotation Zrotation
											JOINT mixamorig:LeftHandThumb4
											{
												OFFSET 2.020889 -1.154053 1.115139
												CHANNELS 6 Xposition Yposition Zposition Xrotation Yrotation Zrotation
												End Site
												{
													OFFSET 190.885437 -115.081749 130.048782
												}
											}
										}
									}
								}
								JOINT mixamorig:LeftHandIndex1
								{
									OFFSET 9.109314 -0.518021 2.259871
									CHANNELS 6 Xposition Yposition Zposition Xrotation Yrotation Zrotation
									JOINT mixamorig:LeftHandIndex2
									{
										OFFSET 3.699989 0.000000 -0.000322
										CHANNELS 6 Xposition Yposition Zposition Xrotation Yrotation Zrotation
										JOINT mixamorig:LeftHandIndex3
										{
											OFFSET 2.850006 0.000000 0.000352
											CHANNELS 6 Xposition Yposition Zposition Xrotation Yrotation Zrotation
											JOINT mixamorig:LeftHandIndex4
											{
												OFFSET 2.774864 -0.000031 -0.000027
												CHANNELS 6 Xposition Yposition Zposition Xrotation Yrotation Zrotation
												End Site
												{
													OFFSET 277.486267 0.000000 -0.009857
												}
											}
										}
									}
								}
								JOINT mixamorig:LeftHandMiddle1
								{
									OFFSET 9.533394 0.000061 0.000044
									CHANNELS 6 Xposition Yposition Zposition Xrotation Yrotation Zrotation
									JOINT mixamorig:LeftHandMiddle2
									{
										OFFSET 3.699989 -0.000015 -0.000231
										CHANNELS 6 Xposition Yposition Zposition Xrotation Yrotation Zrotation
										JOINT mixamorig:LeftHandMiddle3
										{
											OFFSET 2.949997 -0.000015 -0.000059
											CHANNELS 6 Xposition Yposition Zposition Xrotation Yrotation Zrotation
											JOINT mixamorig:LeftHandMiddle4
											{
												OFFSET 2.952896 0.000031 0.000063
												CHANNELS 6 Xposition Yposition Zposition Xrotation Yrotation Zrotation
												End Site
												{
													OFFSET 295.289337 0.000000 0.022810
												}
											}
										}
									}
								}
								JOINT mixamorig:LeftHandRing1
								{
									OFFSET 9.104523 -0.042999 -1.865074
									CHANNELS 6 Xposition Yposition Zposition Xrotation Yrotation Zrotation
									JOINT mixamorig:LeftHandRing2
									{
										OFFSET 3.150009 -0.000031 0.000043
										CHANNELS 6 Xposition Yposition Zposition Xrotation Yrotation Zrotation
										JOINT mixamorig:LeftHandRing3
										{
											OFFSET 2.949982 -0.000015 0.000040
											CHANNELS 6 Xposition Yposition Zposition Xrotation Yrotation Zrotation
											JOINT mixamorig:LeftHandRing4
											{
												OFFSET 2.644348 0.000000 0.000057
												CHANNELS 6 Xposition Yposition Zposition Xrotation Yrotation Zrotation
												End Site
												{
													OFFSET 264.434631 0.000000 0.012105
												}
											}
										}
									}
								}
								JOINT mixamorig:LeftHandPinky1
								{
									OFFSET 8.077789 -0.486847 -3.806259
									CHANNELS 6 Xposition Yposition Zposition Xrotation Yrotation Zrotation
									JOINT mixamorig:LeftHandPinky2
									{
										OFFSET 3.599953 0.000031 0.014727
										CHANNELS 6 Xposition Yposition Zposition Xrotation Yrotation Zrotation
										JOINT mixamorig:LeftHandPinky3
										{
											OFFSET 2.100021 0.000015 0.007705
											CHANNELS 6 Xposition Yposition Zposition Xrotation Yrotation Zrotation
											JOINT mixamorig:LeftHandPinky4
											{
												OFFSET 2.125504 0.000031 0.007517
												CHANNELS 6 Xposition Yposition Zposition Xrotation Yrotation Zrotation
												End Site
												{
													OFFSET 212.550781 0.000000 0.625752
												}
											}
										}
									}
								}
							}
						}
					}
				}
			}
		}
	}
	JOINT mixamorig:RightUpLeg
	{
		OFFSET -8.207787 -6.751648 -1.599560
		CHANNELS 6 Xposition Yposition Zposition Xrotation Yrotation Zrotation
		JOINT mixamorig:RightLeg
		{
			OFFSET -0.000002 -44.370117 0.345942
			CHANNELS 6 Xposition Yposition Zposition Xrotation Yrotation Zrotation
			JOINT mixamorig:RightFoot
			{
				OFFSET 0.000003 -44.423679 -3.043532
				CHANNELS 6 Xposition Yposition Zposition Xrotation Yrotation Zrotation
				JOINT mixamorig:RightToeBase
				{
					OFFSET -0.000002 -8.728671 10.710558
					CHANNELS 6 Xposition Yposition Zposition Xrotation Yrotation Zrotation
					JOINT mixamorig:RightToe_End
					{
						OFFSET -0.000001 -0.000679 9.278119
						CHANNELS 6 Xposition Yposition Zposition Xrotation Yrotation Zrotation
						End Site
						{
							OFFSET 0.000000 -0.067690 927.812134
						}
					}
				}
			}
		}
	}
	JOINT mixamorig:LeftUpLeg
	{
		OFFSET 8.207793 -6.751686 -1.599556
		CHANNELS 6 Xposition Yposition Zposition Xrotation Yrotation Zrotation
		JOINT mixamorig:LeftLeg
		{
			OFFSET -0.000004 -44.370014 0.346954
			CHANNELS 6 Xposition Yposition Zposition Xrotation Yrotation Zrotation
			JOINT mixamorig:LeftFoot
			{
				OFFSET -0.000001 -44.423672 -3.044401
				CHANNELS 6 Xposition Yposition Zposition Xrotation Yrotation Zrotation
				JOINT mixamorig:LeftToeBase
				{
					OFFSET -0.000002 -8.728669 10.710558
					CHANNELS 6 Xposition Yposition Zposition Xrotation Yrotation Zrotation
					JOINT mixamorig:LeftToe_End
					{
						OFFSET -0.000003 -0.000679 9.278133
						CHANNELS 6 Xposition Yposition Zposition Xrotation Yrotation Zrotation
						End Site
						{
							OFFSET 0.000000 -0.068021 927.813477
						}
					}
				}
			}
		}
	}
}
MOTION
Frames: 3
Frame Time: 0.033333
0.000006 104.270477 1.554256 0.000010 0.000003 -0.000113 -0.000005 10.181587 0.131522 0.000001 -0.000003 0.000084 -0.000000 9.893967 -1.470711 0.000001 0.000000 -0.000000 -0.000000 9.220802 -1.370642 0.000000 -0.000000 -0.000000 0.000001 16.740433 -2.049030 0.000000 -0.000000 -0.000000 0.000000 9.617859 1.685014 0.000000 0.000000 0.000000 0.000002 22.037384 7.501101 0.000000 -0.000000 0.000000 -4.569968 11.014880 -2.160881 0.000008 0.000001 -0.000038 -10.592803 -0.524828 -2.231757 54.014167 65.083896 -36.031912 -27.841518 0.000005 0.000577 57.907997 103.474484 -70.098190 -28.328829 0.000006 0.000032 -0.000320 -0.000044 0.000007 -2.464381 -1.573841 2.682308 133.928002 -26.715890 173.390363 -3.214971 -1.872387 1.924626 129.802595 23.176731 108.527505 -2.654886 -1.527937 1.513171 145.911665 22.890249 -79.257693 -2.018819 -1.151999 1.108077 -0.000000 -0.000007 0.000002 -9.108380 -0.517585 2.260152 105.731533 15.929417 -20.997847 -3.700120 0.000252 0.001531 -271.579960 25.745054 -25.041408 -2.850157 0.000291 -0.000260 83.061364 30.687005 -27.317222 -2.772172 -0.000017 -0.000012 0.000001 0.000000 0.000004 -9.532580 0.000260 0.000262 101.525967 12.231752 -15.116827 -3.700099 0.000296 0.003956 89.281152 20.007099 -19.661581 -2.950169 0.000011 -0.001697 -2.787334 77.995706 2.262009 -2.946629 -0.000003 -0.000158 0.000000 -0.000000 0.000002 -9.103663 -0.042739 -1.864841 104.916794 9.974181 -12.902639 -3.378879 0.000320 -0.000799 130.597055 -43.511201 81.892985 -2.889669 -0.000203 0.000723 -98.644058 -10.640195 -12.312008 -2.638812 -0.000018 0.000940 -0.000004 0.000001 -0.000002 -8.076694 -0.486350 -3.805992 102.161892 5.506539 -6.653658 -3.599596 0.000244 -0.003481 128.792069 -46.224111 83.276726 -2.099828 -0.000284 -0.005429 -109.426686 -26.897893 -37.710407 -2.115765 -0.000050 -0.003675 0.000001 0.000002 -0.000002 4.570446 11.014691 -2.160851 -0.000018 0.000010 -0.000021 10.592497 -0.524553 -2.232367 47.885077 -63.313818 30.622146 27.841745 -0.000045 -0.000119 69.740405 -99.019069 78.440392 28.328833 -0.000027 0.000013 0.000024 -0.000086 -0.000000 2.466019 -1.576154 2.681895 150.349006 35.663734 -202.097607 3.217873 -1.871845 1.916436 -192.623492 -20.156341 403.354445 2.656095 -1.528716 1.514531 136.533774 -28.392751 71.674154 2.020887 -1.154069 1.115147 0.000000 0.000002 0.000004 9.109410 -0.517791 2.259746 110.649099 -19.606746 28.029466 3.700091 0.000210 -0.000418 117.784386 -17.794236 29.115959 2.850097 0.000229 0.000257 109.730787 -16.731342 23.604526 2.774882 -0.000032 -0.000023 -0.000002 -0.000006 0.000002 9.533469 0.000282 -0.000081 106.141980 -14.530497 19.241893 3.699944 0.000130 0.000010 -80.257687 -18.275974 -15.442139 2.950002 0.000099 0.000156 -73.971884 -4.855855 -3.659924 2.952861 -0.000045 0.000055 -0.000000 0.000000 0.000002 9.104609 -0.042768 -1.865216 111.259820 -15.855005 23.018919 3.150039 0.000085 0.000173 -102.909087 31.576378 39.075550 2.950009 0.000063 0.000192 -77.087666 20.395242 16.309759 2.644319 0.000010 0.000065 0.000002 -0.000000 -0.000001 8.077871 -0.486592 -3.806388 118.226517 -14.357350 24.741042 3.600012 0.000097 0.014865 -107.577426 35.861563 46.927795 2.100027 0.000057 0.007868 -67.168231 20.402578 13.267991 2.125491 -0.000003 0.007528 0.000002 0.000001 0.000002 -8.207786 -6.751667 -1.599560 -0.077001 -0.000003 0.000080 -0.000002 -44.370110 0.345938 0.153719 -0.000000 -0.000000 0.000000 -44.423679 -3.043532 -0.076700 0.000000 -0.000002 -0.000006 -8.728667 10.710559 -0.000009 -0.000000 -0.000000 -0.000001 -0.000679 9.278123 0.000000 -0.000000 -0.000000 8.207792 -6.751710 -1.599556 -0.074518 -0.000003 0.000081 -0.000002 -44.370014 0.346960 0.148822 0.000002 0.000000 -0.000001 -44.423664 -3.044403 -0.074314 0.000000 -0.000002 -0.000004 -8.728671 10.710558 0.000007 -0.000000 -0.000000 0.000000 -0.000680 9.278137 -0.000000 0.000000 -0.000001 
0.000006 104.270477 1.554256 0.000010 0.000003 -0.000113 -0.000005 10.181587 0.131522 0.000001 -0.000003 0.000084 -0.000000 9.893967 -1.470711 0.000001 0.000000 -0.000000 -0.000000 9.220802 -1.370642 0.000000 -0.000000 -0.000000 0.000001 16.740433 -2.049030 0.000000 -0.000000 -0.000000 0.000000 9.617859 1.685014 0.000000 0.000000 0.000000 0.000002 22.037384 7.501101 0.000000 -0.000000 0.000000 -4.569968 11.014880 -2.160881 0.000008 0.000001 -0.000038 -10.592806 -0.524817 -2.231762 54.498527 64.292038 -35.868001 -27.841509 0.000013 0.000560 63.295923 102.194506 -74.744208 -28.328825 0.000022 0.000023 -0.000319 -0.000046 0.000006 -2.464573 -1.574010 2.682436 165.235827 -15.396956 245.510603 -3.214958 -1.872666 1.924887 140.923195 13.054477 215.263493 -2.654877 -1.527863 1.513153 120.029783 42.919478 -107.627068 -2.018833 -1.151986 1.108063 -0.000003 0.000002 0.000002 -9.108418 -0.517622 2.260119 93.214317 27.344736 -28.912577 -3.700136 0.000196 0.001477 -288.734171 37.368682 -27.230217 -2.850183 0.000081 -0.000326 19.605230 46.900758 -8.571872 -2.772186 -0.000001 -0.000008 -0.000000 -0.000003 -0.000000 -9.532597 0.000239 0.000181 83.434661 17.411902 -15.676720 -3.700104 0.000253 0.003919 74.682142 18.648935 -14.201708 -2.950059 -0.000126 -0.001641 -89.915902 29.044246 29.001168 -2.946629 0.000011 -0.000156 0.000001 0.000001 0.000002 -9.103681 -0.042747 -1.864886 89.299423 14.294197 -14.079321 -3.378934 0.000342 -0.000895 104.278568 -43.217735 54.001149 -2.889579 -0.000247 0.000694 -107.623810 -28.995256 -38.858613 -2.638801 0.000015 0.000939 -0.000002 0.000000 -0.000000 -8.076724 -0.486370 -3.806020 90.439313 13.151904 -13.106341 -3.599735 0.000322 -0.003517 111.480654 -33.415474 47.666282 -2.099575 -0.000252 -0.005497 -126.799252 -50.776285 -87.335976 -2.115764 -0.000029 -0.003678 0.000004 0.000003 -0.000002 4.570446 11.014691 -2.160851 -0.000018 0.000010 -0.000021 10.592493 -0.524554 -2.232375 49.649588 -62.398327 31.300028 27.841747 -0.000059 -0.000124 72.965217 -99.379744 82.155189 28.328833 -0.000028 0.000024 0.000023 -0.000088 -0.000001 2.465993 -1.576167 2.681906 142.470247 25.881825 -191.334417 3.217762 -1.872034 1.916584 -210.732605 -10.112109 474.910156 2.656043 -1.528777 1.514622 126.643168 -35.742493 98.080390 2.020890 -1.154071 1.115139 0.000001 0.000003 0.000006 9.109426 -0.517885 2.259805 110.779207 -33.954489 47.708421 3.700105 0.000173 -0.000399 114.221745 -26.436150 39.952317 2.850087 0.000182 0.000241 96.665509 -23.078308 25.839992 2.774878 -0.000031 -0.000026 -0.000002 -0.000003 0.000001 9.533473 0.000247 -0.000084 100.839984 -15.961773 19.240201 3.700060 0.000133 -0.000350 81.029082 -21.151310 18.126987 2.949982 0.000107 0.000163 -72.745613 -11.772033 -8.685834 2.952870 -0.000015 0.000067 -0.000001 0.000000 0.000001 9.104601 -0.042805 -1.865202 102.926689 -15.767178 19.727210 3.149756 0.000032 -0.000026 -4.090214 120.459784 7.141779 2.950010 0.000068 0.000190 -93.677977 25.570678 27.203877 2.644313 0.000017 0.000052 0.000000 -0.000000 0.000002 8.077866 -0.486638 -3.806390 108.254510 -16.174243 23.036182 3.599648 0.000314 0.014629 -205.397449 24.280984 -87.387797 2.100061 0.000103 0.007842 -119.875926 31.616563 51.245700 2.125491 -0.000013 0.007523 0.000001 0.000001 0.000002 -8.207786 -6.751667 -1.599560 -0.077001 -0.000003 0.000080 -0.000002 -44.370110 0.345938 0.153719 -0.000000 -0.000000 0.000000 -44.423679 -3.043532 -0.076700 0.000000 -0.000002 -0.000006 -8.728667 10.710559 -0.000009 -0.000000 -0.000000 -0.000001 -0.000679 9.278123 0.000000 -0.000000 -0.000000 8.207792 -6.751710 -1.599556 -0.074518 -0.000003 0.000081 -0.000002 -44.370014 0.346960 0.148822 0.000002 0.000000 -0.000001 -44.423664 -3.044403 -0.074314 0.000000 -0.000002 -0.000004 -8.728671 10.710558 0.000007 -0.000000 -0.000000 0.000000 -0.000680 9.278137 -0.000000 0.000000 -0.000001 
0.000006 104.270477 1.554256 0.000010 0.000003 -0.000113 -0.000005 10.181587 0.131522 0.000001 -0.000003 0.000084 -0.000000 9.893967 -1.470711 0.000001 0.000000 -0.000000 -0.000000 9.220802 -1.370642 0.000000 -0.000000 -0.000000 0.000001 16.740433 -2.049030 0.000000 -0.000000 -0.000000 0.000000 9.617859 1.685014 0.000000 0.000000 0.000000 0.000002 22.037384 7.501101 0.000000 -0.000000 0.000000 -4.569968 11.014880 -2.160881 0.000008 0.000001 -0.000038 -10.592809 -0.524835 -2.231761 55.904340 63.824525 -36.572425 -27.841520 0.000012 0.000559 65.127848 101.725231 -76.249602 -28.328840 0.000034 0.000021 -0.000325 -0.000046 0.000006 -2.464534 -1.574113 2.682341 195.520380 -37.819861 264.825176 -3.214985 -1.872970 1.924752 204.601773 -22.149644 285.130946 -2.654836 -1.527843 1.513174 125.920958 40.720826 -124.363142 -2.018834 -1.152008 1.108064 -0.000004 -0.000001 0.000002 -9.108371 -0.517835 2.260340 6.273156 102.993085 -7.926899 -3.700125 0.000122 0.001627 -265.912515 55.803885 -59.225089 -2.850161 0.000236 -0.000221 87.852065 38.040537 -36.735028 -2.772189 -0.000015 -0.000018 -0.000000 -0.000001 0.000001 -9.532628 0.000247 0.000216 87.693311 21.159696 -20.485643 -3.700062 0.000317 0.003973 91.422745 8.234444 -8.348193 -2.950013 0.000361 -0.001738 -249.529951 3.037191 -4.365423 -2.946623 0.000015 -0.000151 -0.000000 -0.000000 -0.000001 -9.103695 -0.042742 -1.864856 92.713124 17.315769 -18.095311 -3.379181 0.000399 -0.000811 105.807526 -11.244569 14.819137 -2.889188 -0.000000 0.000745 -178.595062 -41.282490 -176.159963 -2.638799 -0.000030 0.000940 0.000001 0.000001 0.000002 -8.076733 -0.486378 -3.805989 95.475922 16.643851 -18.124293 -3.599921 0.000357 -0.003459 116.610481 -9.053324 15.017877 -2.099683 0.000433 -0.005370 -36.046651 -156.262516 -114.174057 -2.115768 -0.000038 -0.003675 0.000000 -0.000002 -0.000003 4.570446 11.014691 -2.160851 -0.000018 0.000010 -0.000021 10.592493 -0.524549 -2.232379 51.313097 -61.818109 32.088126 27.841743 -0.000055 -0.000126 73.374140 -99.590490 82.790519 28.328840 -0.000029 0.000025 0.000023 -0.000088 -0.000000 2.466127 -1.576159 2.681904 160.461484 27.410915 -225.101015 3.217753 -1.872043 1.916606 -205.148475 1.057050 481.741329 2.656004 -1.528773 1.514660 133.778421 -30.404095 110.365714 2.020879 -1.154084 1.115155 -0.000007 0.000002 0.000004 9.109438 -0.517884 2.259810 111.986935 -32.269406 46.398735 3.700083 0.000131 -0.000399 105.654666 -33.290789 43.060941 2.850084 0.000058 0.000311 75.774166 -45.733639 36.334076 2.774879 -0.000047 -0.000030 -0.000002 -0.000002 0.000000 9.533463 0.000236 -0.000084 92.169318 -13.015503 13.504395 3.700036 0.000131 -0.000400 72.796074 -10.290245 7.593439 2.949983 0.000106 0.000158 -72.695841 -13.993189 -10.321851 2.952873 -0.000031 0.000062 0.000004 -0.000002 0.000000 9.104582 -0.042804 -1.865220 95.235220 -11.465351 12.557559 3.149747 0.000253 -0.000118 -55.352697 136.651718 105.694152 2.950021 0.000087 0.000205 -100.256139 20.755055 24.729257 2.644318 0.000060 0.000060 0.000002 -0.000000 -0.000000 8.077854 -0.486659 -3.806387 98.365871 -14.574575 17.507672 3.599710 0.000401 0.014647 -209.793591 16.373406 -56.306901 2.100081 0.000172 0.007883 -121.767957 20.734409 35.453091 2.125504 -0.000015 0.007487 0.000002 -0.000000 0.000000 -8.207786 -6.751667 -1.599560 -0.077001 -0.000003 0.000080 -0.000002 -44.370110 0.345938 0.153719 -0.000000 -0.000000 0.000000 -44.423679 -3.043532 -0.076700 0.000000 -0.000002 -0.000006 -8.728667 10.710559 -0.000009 -0.000000 -0.000000 -0.000001 -0.000679 9.278123 0.000000 -0.000000 -0.000000 8.207792 -6.751710 -1.599556 -0.074518 -0.000003 0.000081 -0.000002 -44.370014 0.346960 0.148822 0.000002 0.000000 -0.000001 -44.423664 -3.044403 -0.074314 0.000000 -0.000002 -0.000004 -8.728671 10.710558 0.000007 -0.000000 -0.000000 0.000000 -0.000680 9.278137 -0.000000 0.000000 -0.000001 
